<svg xmlns="http://www.w3.org/2000/svg" xml:space="preserve" id="back-arrow" x="0" y="0" enable-background="new 0 0 64 64" version="1.1" viewBox="0 0 64 64">
  <circle cx="32" cy="32" r="32" fill="#fff"></circle>
  <path fill="#1B1B1D" d="M21.94,53c-0.23,0-0.46-0.05-0.67-0.16c-0.52-0.26-0.85-0.79-0.85-1.37V33.72c0-0.84,0.68-1.52,1.52-1.52
					c0.84,0,1.52,0.68,1.52,1.52v14.66l5.92-4.57c0.52-0.4,1.23-0.42,1.77-0.06l7.37,4.89V35.69c0-0.84,0.68-1.52,1.52-1.52
					c0.84,0,1.52,0.68,1.52,1.52v15.79c0,0.56-0.31,1.08-0.8,1.34c-0.49,0.26-1.09,0.24-1.56-0.07l-8.83-5.85l-7.51,5.79
					C22.6,52.89,22.27,53,21.94,53z"></path>
  <path fill="#1B1B1D" d="M32,40.02c-8,0-14.51-6.51-14.51-14.51C17.49,17.51,24,11,32,11c8,0,14.51,6.51,14.51,14.51
					C46.51,33.51,40,40.02,32,40.02z M32,14.04c-6.32,0-11.47,5.14-11.47,11.47c0,6.32,5.14,11.46,11.47,11.46
					c6.32,0,11.47-5.14,11.47-11.46C43.47,19.19,38.32,14.04,32,14.04z"></path>
</svg>
