<?xml version="1.0" encoding="UTF-8"?>
<svg version="1.1" xmlns="http://www.w3.org/2000/svg" width="512" height="512">
<path d="M0 0 C7.12255787 4.45895668 11.07736675 9.98432194 13.43907166 18.05865479 C13.91150881 20.28186967 14.04918599 22.3136989 14.09594727 24.58496094 C14.1258651 25.87584625 14.1258651 25.87584625 14.15638733 27.19281006 C14.17309982 28.11273743 14.18981232 29.03266479 14.20703125 29.98046875 C14.22781235 30.92923889 14.24859344 31.87800903 14.27000427 32.85552979 C14.33530434 35.88147857 14.39429388 38.90751295 14.453125 41.93359375 C14.4963288 43.98698796 14.53994369 46.04037357 14.58398438 48.09375 C14.69096573 53.12361055 14.79228823 58.15355707 14.890625 63.18359375 C16.14850327 63.18945999 17.40638153 63.19532623 18.70237732 63.20137024 C30.57562778 63.25866435 42.44869628 63.33146116 54.32176113 63.41930866 C60.42535002 63.46397365 66.52887276 63.50323852 72.63256836 63.5300293 C78.52657174 63.55610057 84.42032002 63.59653057 90.31416512 63.64678001 C92.55910117 63.66342278 94.80408133 63.67495314 97.04907036 63.68120766 C100.20152193 63.69087672 103.35332464 63.71897041 106.50561523 63.7512207 C107.887742 63.74906807 107.887742 63.74906807 109.29779053 63.74687195 C117.88537606 63.87054582 125.17520737 65.67432032 131.51953125 71.65234375 C135.12363935 75.67744453 135.79622322 80.91597454 135.890625 86.18359375 C135.3123213 92.50209713 133.62692772 96.75618034 128.890625 101.18359375 C121.09357509 106.29426512 113.04819695 106.33320995 104.00805664 106.29711914 C103.04143097 106.29726517 102.0748053 106.29741119 101.07888794 106.29756165 C97.90282907 106.2968683 94.7268298 106.28910303 91.55078125 106.28125 C89.34118176 106.27938377 87.13158186 106.27796083 84.92198181 106.27696228 C79.12042081 106.27315327 73.31888505 106.26333682 67.51733398 106.2522583 C61.59163759 106.24200939 55.66593709 106.23745721 49.74023438 106.23242188 C38.12368508 106.22171307 26.50716109 106.20412939 14.890625 106.18359375 C14.890625 114.43359375 14.890625 122.68359375 14.890625 131.18359375 C18.04931152 131.1678833 21.20799805 131.15217285 24.46240234 131.13598633 C34.91975557 131.08619055 45.37711414 131.05310484 55.83455467 131.02815723 C62.17248196 131.01252735 68.51028737 130.99133779 74.84814453 130.95727539 C80.96896176 130.92458677 87.08966203 130.9067206 93.21055984 130.89896202 C95.54124415 130.89343558 97.87192234 130.8826439 100.20255661 130.86640358 C103.47681061 130.84450333 106.75058643 130.84163213 110.02490234 130.84301758 C110.98012787 130.83223175 111.93535339 130.82144592 112.91952515 130.81033325 C121.6992139 130.85031282 129.95733742 132.51090391 136.890625 138.18359375 C142.50464737 144.0375316 146.03048089 150.52070015 149.765625 157.68359375 C150.41642977 158.91586757 151.06789345 160.14779359 151.7199707 161.37939453 C157.26807027 171.88597716 162.68994644 182.45907489 168.11645508 193.02880859 C171.96276369 200.51124437 175.88986804 207.94118015 179.953125 215.30859375 C184.42785712 223.42836808 188.7775813 231.60778047 193.05197144 239.83441162 C193.73063026 241.14006037 194.41072233 242.44496524 195.09231567 243.74908447 C196.04388065 245.57132772 196.98959931 247.39648203 197.93359375 249.22265625 C198.48039795 250.27662598 199.02720215 251.3305957 199.59057617 252.41650391 C202.50917303 258.62859344 203.16139097 265.87025098 201.20703125 272.50390625 C198.67526214 278.02967617 195.10802682 281.66381601 189.55859375 284.28515625 C183.97709676 286.16472332 177.98159049 286.23645387 172.390625 284.33203125 C164.88558743 280.08438846 161.64848315 272.56234275 157.890625 265.18359375 C156.80513689 263.09934731 155.71774045 261.01609412 154.62890625 258.93359375 C152.18779843 254.25382776 149.76053198 249.56735074 147.34375 244.875 C144.12863708 238.63539697 140.8725321 232.41866304 137.59179688 226.21337891 C135.29142609 221.85802284 133.0119236 217.49265579 130.75 213.1171875 C129.94393311 211.56112793 129.94393311 211.56112793 129.12158203 209.97363281 C128.07800255 207.95754768 127.03715632 205.94004456 125.99951172 203.92089844 C124.65531714 201.32699811 123.28761682 198.74939847 121.890625 196.18359375 C121.5512793 195.5592041 121.21193359 194.93481445 120.86230469 194.29150391 C118.46879947 190.28219779 116.23259844 188.80207714 111.890625 187.18359375 C107.6771269 186.74803473 103.48366727 186.78740165 99.25097656 186.81469727 C97.29793904 186.80891548 95.34490152 186.80313101 93.3918643 186.79724586 C91.29987746 186.79376872 89.20801589 186.7976067 87.11603546 186.8034687 C82.74406977 186.81509247 78.37236729 186.80285404 74.00042725 186.78684998 C63.13954242 186.75072062 52.27866411 186.74442012 41.41772461 186.74694824 C32.97833688 186.74866318 24.53916553 186.74142598 16.09983802 186.70696968 C11.76209832 186.69025515 7.424888 186.69190155 3.08715105 186.7077924 C-0.25936363 186.71499603 -3.60565927 186.69632132 -6.95214844 186.68188477 C-8.14106689 186.69162827 -9.32998535 186.70137177 -10.55493164 186.71141052 C-19.07255616 186.63829688 -26.28638655 185.34171465 -32.984375 179.80859375 C-40.88181556 170.05293188 -41.40839551 162.56441056 -41.39990234 150.34472656 C-41.40589371 148.94283696 -41.41270065 147.54095064 -41.42025757 146.1390686 C-41.43786473 142.3454593 -41.44261076 138.55194033 -41.44388914 134.75829411 C-41.44531451 132.38337589 -41.44959143 130.00848037 -41.45488358 127.63356781 C-41.47336766 119.33447319 -41.48155638 111.03544265 -41.47998047 102.73632812 C-41.4787801 95.02290632 -41.49986603 87.30976478 -41.5314678 79.59641385 C-41.55769661 72.95580276 -41.56834498 66.31528283 -41.56706965 59.67462039 C-41.56656187 55.71660668 -41.57214192 51.75884215 -41.59342575 47.80088043 C-41.6129196 44.07427577 -41.61285754 40.34815509 -41.59839249 36.62153244 C-41.59533482 34.61862568 -41.61190321 32.6157183 -41.62927246 30.61288452 C-41.55614887 20.00785701 -39.67702481 10.65908522 -32.0703125 2.84375 C-23.24388066 -4.62882675 -10.15634843 -5.43552722 0 0 Z " fill="#fff" transform="translate(223.109375,136.81640625)"/>
<path d="M0 0 C3.46175607 2.70238046 4.84717589 4.19800324 5.67871094 8.56176758 C5.72488296 9.92203189 5.74193258 11.28350453 5.734375 12.64453125 C5.74390198 13.37314865 5.75342896 14.10176605 5.76324463 14.85246277 C5.77537154 16.3896312 5.77460765 17.92694909 5.76171875 19.46411133 C5.75007667 21.79713634 5.80219682 24.12284914 5.859375 26.45507812 C5.97213604 38.89612856 5.97213604 38.89612856 1.7578125 43.78125 C0.5387177 44.89209438 -0.71170081 45.97021723 -2 47 C-2.84304687 47.82886719 -3.68609375 48.65773438 -4.5546875 49.51171875 C-5.32039063 50.22972656 -6.08609375 50.94773437 -6.875 51.6875 C-20.47241241 65.22310599 -28.98913843 82.39594717 -33 101 C-33.1743457 101.77682129 -33.34869141 102.55364258 -33.52832031 103.35400391 C-37.89067932 127.82566378 -31.81189715 153.83589222 -17.9921875 174.2890625 C-2.45938213 195.42586039 17.36644045 208.70769039 43.5625 213.25 C71.2059487 216.91597707 97.64409333 207.18874144 119.58984375 190.6875 C137.76739757 176.57304199 150.06496294 158.99590415 160.45703125 138.58203125 C162 136 162 136 165 134 C168.3125 133.8125 168.3125 133.8125 172 135 C174.57223082 137.64728265 176.19402871 140.80097002 178 144 C178.8001064 145.28200021 179.60374531 146.56179985 180.41015625 147.83984375 C181.25465077 149.22531709 182.09709219 150.61204392 182.9375 152 C183.35177246 152.65170166 183.76604492 153.30340332 184.19287109 153.97485352 C187.68330707 159.9475259 187.19564367 164.43471221 185.48413086 170.96972656 C184.89448205 172.88988416 184.22410562 174.75153561 183.5 176.625 C183.23936768 177.30522217 182.97873535 177.98544434 182.71020508 178.6862793 C169.83997787 210.81918153 140.98623124 234.40499306 109.8125 247.75 C77.00278783 261.20271186 40.04080996 260.00193715 7.34912109 246.94091797 C-28.08134486 231.97765981 -53.43664199 205.52748159 -68 170 C-71.95954082 159.62157624 -74.29637225 148.95847037 -76 138 C-76.185625 136.81148437 -76.37125 135.62296875 -76.5625 134.3984375 C-78.57077724 117.59232798 -78.1096925 99.45723223 -74 83 C-73.80132324 82.19804199 -73.60264648 81.39608398 -73.39794922 80.56982422 C-70.33305184 68.61557654 -66.07713309 57.73423257 -60 47 C-59.44570312 46.00613281 -58.89140625 45.01226562 -58.3203125 43.98828125 C-53.81459848 36.43204793 -48.06871904 30.29906458 -42 24 C-41.35417969 23.27941406 -40.70835938 22.55882812 -40.04296875 21.81640625 C-31.84837267 12.94339046 -12.49786518 -2.8056432 0 0 Z " fill="#fff" transform="translate(164,215)"/>
<path d="M0 0 C8.29682083 6.15976092 13.49210314 14.9966924 15.6953125 25.03515625 C17.45227112 37.14623022 15.47775808 48.40074054 8.375 58.484375 C1.3560486 66.89956942 -7.67050326 72.55804833 -18.6796875 73.72265625 C-30.17243418 74.76008331 -41.26094141 72.36159835 -50.68359375 65.48046875 C-58.70262061 58.41870341 -64.23152653 48.72425305 -64.91796875 38 C-65.24061058 25.40679513 -63.48445707 15.31181509 -54.6796875 5.72265625 C-49.00989842 -0.20831314 -43.54172071 -3.87392427 -35.6796875 -6.27734375 C-35.05964844 -6.46941406 -34.43960938 -6.66148438 -33.80078125 -6.859375 C-21.59611322 -9.26434642 -10.30895863 -6.57640465 0 0 Z " fill="#fff" transform="translate(234.6796875,47.27734375)"/>
</svg>
