<svg xmlns="http://www.w3.org/2000/svg" fill-rule="evenodd" stroke-linejoin="round" stroke-miterlimit="2" clip-rule="evenodd" viewBox="0 0 48 48" id="map">
  <path fill="#fff" d="M24 2C11.858 2 2 11.858 2 24s9.858 22 22 22 22-9.858 22-22S36.142 2 24 2Zm-9 36h18a1 1 0 0 0 0-2H15a1 1 0 0 0 0 2Zm18-19.143C33 13.548 28.972 10 24 10s-9 3.548-9 8.857c0 2.686 1.332 5.653 2.972 8.231 2.368 3.72 5.327 6.625 5.327 6.625a.999.999 0 0 0 1.402 0s2.959-2.905 5.327-6.625C31.668 24.51 33 21.543 33 18.857Zm-2 0c0 2.343-1.228 4.908-2.66 7.157-1.549 2.435-3.366 4.502-4.34 5.545-.974-1.043-2.791-3.11-4.34-5.545C18.228 23.765 17 21.2 17 18.857 17 14.737 20.142 12 24 12s7 2.737 7 6.857ZM24 14c-2.76 0-5 2.24-5 5s2.24 5 5 5 5-2.24 5-5-2.24-5-5-5Zm0 2a3.001 3.001 0 0 1 0 6 3.001 3.001 0 0 1 0-6Z"></path>
</svg>
