<?xml version="1.0" encoding="UTF-8"?>
<svg version="1.1" xmlns="http://www.w3.org/2000/svg" width="512" height="512">
<path d="M0 0 C0.91297852 0.16628906 1.82595703 0.33257812 2.76660156 0.50390625 C44.3986228 8.16363077 83.16052206 26.40624883 116 53 C116.54446777 53.44005371 117.08893555 53.88010742 117.64990234 54.33349609 C131.72173929 65.81174863 144.93680647 78.57719064 156 93 C156.75925781 93.93070312 157.51851563 94.86140625 158.30078125 95.8203125 C184.1596216 128.07168914 200.62794761 167.52514646 208 208 C208.16371094 208.83563477 208.32742188 209.67126953 208.49609375 210.53222656 C213.78656862 238.24163521 213.41678597 270.35093304 208 298 C207.83371094 298.91297852 207.66742188 299.82595703 207.49609375 300.76660156 C199.83636923 342.3986228 181.59375117 381.16052206 155 414 C154.55994629 414.54446777 154.11989258 415.08893555 153.66650391 415.64990234 C142.18825137 429.72173929 129.42280936 442.93680647 115 454 C114.06929688 454.75925781 113.13859375 455.51851563 112.1796875 456.30078125 C79.92831086 482.1596216 40.47485354 498.62794761 0 506 C-0.83563477 506.16371094 -1.67126953 506.32742188 -2.53222656 506.49609375 C-30.24163521 511.78656862 -62.35093304 511.41678597 -90 506 C-90.91297852 505.83371094 -91.82595703 505.66742188 -92.76660156 505.49609375 C-134.3986228 497.83636923 -173.16052206 479.59375117 -206 453 C-206.54446777 452.55994629 -207.08893555 452.11989258 -207.64990234 451.66650391 C-221.72173929 440.18825137 -234.93680647 427.42280936 -246 413 C-246.75925781 412.06929688 -247.51851562 411.13859375 -248.30078125 410.1796875 C-274.1596216 377.92831086 -290.62794761 338.47485354 -298 298 C-298.16371094 297.16436523 -298.32742188 296.32873047 -298.49609375 295.46777344 C-303.78656862 267.75836479 -303.41678597 235.64906696 -298 208 C-297.83371094 207.08702148 -297.66742188 206.17404297 -297.49609375 205.23339844 C-289.83636923 163.6013772 -271.59375117 124.83947794 -245 92 C-244.55994629 91.45553223 -244.11989258 90.91106445 -243.66650391 90.35009766 C-232.18825137 76.27826071 -219.42280936 63.06319353 -205 52 C-204.06929688 51.24074219 -203.13859375 50.48148438 -202.1796875 49.69921875 C-169.92831086 23.8403784 -130.47485354 7.37205239 -90 0 C-89.16436523 -0.16371094 -88.32873047 -0.32742188 -87.46777344 -0.49609375 C-59.75836479 -5.78656862 -27.64906696 -5.41678597 0 0 Z M-155 96 C-149.82385061 102.26647457 -144.15991018 107.97769391 -138.40786743 113.71238708 C-137.3300277 114.79066339 -136.25240795 115.86915963 -135.17498815 116.94785553 C-132.22637536 119.89869639 -129.27466706 122.84642347 -126.32242894 125.79363668 C-123.13459588 128.97714113 -119.94966374 132.16354551 -116.76437378 135.34959412 C-111.24944268 140.86504892 -105.73268729 146.3786735 -100.21467972 151.89105034 C-92.2366223 159.86097202 -84.26133587 167.83366183 -76.28671758 175.80702449 C-63.34756068 188.74399413 -50.40617337 201.67873019 -37.46337891 214.61206055 C-24.89254422 227.17371268 -12.32276288 239.7364173 0.24560547 252.30053711 C1.02064798 253.0753169 1.79569049 253.85009668 2.59421913 254.64835464 C6.48247106 258.53530151 10.37070232 262.42226906 14.25892329 266.3092469 C46.50274391 298.54270507 78.75018631 330.77253801 111 363 C118.92579135 353.16618554 124.62813071 342.36693181 130 331 C130.53753906 329.86691406 131.07507813 328.73382813 131.62890625 327.56640625 C150.34673613 286.07440216 151.71376557 235.90717031 137 193 C136.77586426 192.33597168 136.55172852 191.67194336 136.32080078 190.98779297 C120.42804542 144.52083074 85.78546517 103.7754309 41.65185547 81.83251953 C31.03343885 76.71933395 20.30927366 72.34307101 9 69 C7.82695312 68.64292969 6.65390625 68.28585938 5.4453125 67.91796875 C1.6531085 66.82923921 -2.15275403 65.86885351 -6 65 C-6.98758301 64.77135254 -6.98758301 64.77135254 -7.99511719 64.53808594 C-58.36851078 53.47934661 -113.21482571 66.75550187 -155 96 Z M-202 143 C-208.94343732 153.17829408 -214.79072026 163.84879543 -220 175 C-220.53367187 176.12664062 -221.06734375 177.25328125 -221.6171875 178.4140625 C-240.36428562 219.8908029 -241.71074831 270.10162839 -227 313 C-226.66379639 313.99604248 -226.66379639 313.99604248 -226.32080078 315.01220703 C-210.42804542 361.47916926 -175.78546517 402.2245691 -131.65185547 424.16748047 C-121.03343885 429.28066605 -110.30927366 433.65692899 -99 437 C-97.24042969 437.53560547 -97.24042969 437.53560547 -95.4453125 438.08203125 C-91.6531085 439.17076079 -87.84724597 440.13114649 -84 441 C-83.34161133 441.15243164 -82.68322266 441.30486328 -82.00488281 441.46191406 C-33.90320354 452.02193185 17.95267714 440.20287816 58.984375 414.1015625 C61.01092229 412.76102035 63.00962415 411.39301903 65 410 C59.82448176 403.73541643 54.16339704 398.0229992 48.41459656 392.28761292 C47.33747156 391.20933443 46.26056444 390.13083826 45.18385535 389.05214447 C42.23717541 386.10130284 39.28740039 383.15357253 36.33708799 380.20636332 C33.15129831 377.02284024 29.96839245 373.83643611 26.78511047 370.65040588 C20.5552814 364.41613455 14.32275725 358.18456431 8.08925643 351.95396448 C3.02607172 346.89303865 -2.03613549 341.83113702 -7.09764671 336.76853752 C-8.1783851 335.68756928 -8.1783851 335.68756928 -9.28095659 334.5847633 C-10.7445639 333.12083628 -12.20816895 331.65690701 -13.67177179 330.19297551 C-27.38774169 316.47415566 -41.10677252 302.75840006 -54.82685467 289.043693 C-66.61034907 277.26467191 -78.39121111 265.48302339 -90.17016602 253.69946289 C-103.84529186 240.01899256 -117.52202927 226.34013671 -131.20136517 212.663876 C-132.65805625 211.20750347 -134.11474524 209.75112886 -135.57143211 208.29475212 C-136.28819014 207.57814837 -137.00494818 206.86154461 -137.74342615 206.12322559 C-142.80544871 201.06206814 -147.8663065 195.99974776 -152.92672157 190.93698311 C-159.08511168 184.77579646 -165.24526384 178.61637824 -171.40772352 172.4592619 C-174.55439036 169.31523318 -177.70023383 166.17039175 -180.84393692 163.02339935 C-183.71655085 160.14782506 -186.59142755 157.27453416 -189.46819677 154.40311705 C-190.513318 153.35912106 -191.55758019 152.31426432 -192.60093502 151.26850302 C-194.00940048 149.85703614 -195.42119354 148.44889203 -196.83319569 147.04096317 C-198.01247488 145.86192751 -198.01247488 145.86192751 -199.2155779 144.65907294 C-200.71597171 142.88651402 -200.71597171 142.88651402 -202 143 Z " fill="#fff" transform="translate(301,3)"/>
</svg>
