<?xml version="1.0" encoding="UTF-8"?>
<svg version="1.1" xmlns="http://www.w3.org/2000/svg" width="512" height="512">
<path d="M0 0 C4.97497887 2.412463 8.64275033 5.22207698 12.50285417 9.15199697 C13.09152086 9.73512926 13.68018755 10.31826155 14.28669262 10.91906452 C16.24061929 12.85946718 18.18003765 14.81372805 20.11972123 16.7683605 C21.52404841 18.16890159 22.92923283 19.56858358 24.33520585 20.96747243 C28.13955815 24.75789285 31.93126563 28.56073097 35.72038943 32.36636722 C39.69117706 36.35102889 43.67213835 40.32550403 47.65162736 44.30147207 C54.33047334 50.97761827 61.00119692 57.66179687 67.66708452 64.35088003 C75.37175234 72.08217232 83.08879413 79.80094035 90.81265128 87.51305842 C98.2477675 94.9373939 105.67437052 102.37018828 113.09702188 109.80698431 C116.25412824 112.96984621 119.41412998 116.12977293 122.57648736 119.28738439 C126.29916698 123.00529001 130.0143154 126.73056231 133.72378999 130.46164167 C135.0857636 131.82917686 136.45028722 133.19417786 137.81753808 134.5564369 C139.68419517 136.41713234 141.54135478 138.28682374 143.39640886 140.15907705 C144.20972404 140.96337717 144.20972404 140.96337717 145.03946984 141.78392577 C150.54814498 147.38574222 152.55491055 151.95346418 152.50717241 159.78252065 C152.51490678 161.05095815 152.52264116 162.31939565 152.53060991 163.62627065 C151.81357937 170.20608024 148.66701771 174.12317875 144.0816353 178.70537221 C143.32983743 179.46264608 143.32983743 179.46264608 142.56285173 180.23521841 C140.91746532 181.8886581 139.26154599 183.53106568 137.60482866 185.17314565 C136.45233471 186.32512049 135.30035993 187.47761494 134.14888078 188.63060415 C131.74020488 191.03919057 129.32646643 193.44254625 126.90878373 195.84209096 C123.81225019 198.91590009 120.72695256 202.00070046 117.6451357 205.08925664 C115.27004899 207.46768596 112.89 209.84109732 110.50833017 212.21293294 C109.36873005 213.3486887 108.2304695 214.48579022 107.09358484 215.62426412 C105.50463319 217.21358707 103.90933325 218.79624888 102.31210405 220.37724721 C101.40626069 221.27848318 100.50041734 222.17971914 99.56712419 223.10826528 C94.78511141 227.3782952 91.07635522 227.74521372 84.80014116 227.57939565 C76.92056141 226.70260493 71.35365991 218.68975277 66.13217241 213.28252065 C62.71648355 214.76856101 60.39677885 216.71277473 57.71493608 219.28227651 C56.85111818 220.10751318 55.98730027 220.93274984 55.09730607 221.78299367 C51.18762267 225.57695309 47.28658436 229.37914422 43.40390092 233.20073354 C41.35452087 235.21448776 39.28952401 237.20984797 37.20858842 239.19096792 C34.68714617 241.59163762 32.19680473 244.02083631 29.72536737 246.47292173 C28.32712023 247.8458734 26.89988403 249.18910099 25.47230607 250.53152883 C20.76064786 255.12306259 20.76064786 255.12306259 18.76646501 261.17441213 C19.00358756 263.97216358 19.47170384 266.55658304 20.13217241 269.28252065 C20.32468583 270.8621459 20.32468583 270.8621459 20.52108842 272.47368276 C20.6415352 273.3271227 20.76198198 274.18056264 20.88607866 275.0598644 C25.36646724 308.63283692 26.57947843 347.51334574 5.85873491 376.4583019 C-2.73726536 387.23899991 -2.73726536 387.23899991 -8.86782759 389.28252065 C-15.49076533 389.71681165 -19.51621932 388.82616969 -24.97631758 384.68231618 C-34.19125626 376.23269192 -42.95648444 367.31820022 -51.78189009 358.4661144 C-53.60583856 356.64029805 -55.43001002 354.81470444 -57.25439376 352.98932302 C-61.54124975 348.69905764 -65.82587472 344.40657619 -70.1093908 340.11297649 C-74.99265094 335.21847478 -79.87880714 330.32686845 -84.76518863 325.43548322 C-94.80258926 315.38767641 -104.83641311 305.33630367 -114.86782759 295.28252065 C-118.24832676 296.74652724 -120.43840692 298.61388865 -123.02220076 301.22330129 C-123.8421704 302.04630224 -124.66214003 302.86930318 -125.50695723 303.71724355 C-126.39795119 304.62171224 -127.28894515 305.52618093 -128.20693892 306.45805776 C-129.16121467 307.41944858 -130.1159642 308.38036931 -131.07115096 309.340855 C-133.12553991 311.40833434 -135.17687465 313.47878079 -137.22599143 315.55148542 C-140.46896156 318.83108155 -143.72064971 322.10193865 -146.97395247 325.37128103 C-156.22321025 334.66880923 -165.46068816 343.97798872 -174.6893608 353.29594839 C-179.78771958 358.44347849 -184.89329918 363.58373721 -190.00665987 368.71636623 C-193.23945685 371.96221835 -196.46304584 375.21686081 -199.68003541 378.47837663 C-201.68759665 380.50947348 -203.70354381 382.53208422 -205.72190589 384.55244291 C-207.09545416 385.93230334 -208.45896694 387.32213089 -209.82211226 388.71226919 C-215.5231863 394.3953932 -219.6152042 397.81000694 -227.80532759 398.72002065 C-233.04369793 398.47590242 -237.62708874 396.65543792 -241.25845259 392.8098644 C-244.00067229 388.72550197 -244.33551723 384.73810867 -244.39907759 379.90752065 C-242.71892325 371.60558153 -236.09682911 366.10264568 -230.32583541 360.39995229 C-229.34924346 359.42420774 -228.37331397 358.44779979 -227.39799422 357.47078359 C-224.7624264 354.83435879 -222.11774476 352.20725464 -219.47127169 349.58178294 C-216.70188764 346.83121541 -213.94105688 344.07208928 -211.17929 341.31387746 C-205.95448391 336.09837725 -200.72208114 330.8905685 -195.48687452 325.68551046 C-189.5244856 319.75671098 -183.57066308 313.81934046 -177.61752862 307.88125086 C-165.37710472 295.67214295 -153.12601885 283.47378914 -140.86782759 271.28252065 C-142.27783661 268.08456611 -143.9553077 265.95090947 -146.42896956 263.4943279 C-147.16782897 262.75560949 -147.90668837 262.01689107 -148.66793746 261.25578725 C-149.47889876 260.45515859 -150.28986006 259.65452993 -151.12539595 258.82963979 C-151.97918334 257.97877294 -152.83297072 257.12790609 -153.71263045 256.25125539 C-155.56786061 254.40363844 -157.42478938 252.55793651 -159.28483313 250.71518552 C-162.2275382 247.79955893 -165.16256989 244.87628924 -168.09648055 241.95181692 C-174.85628511 235.21608862 -181.62605667 228.49040653 -188.39594191 221.76481283 C-194.59874505 215.6023938 -200.79941124 209.43786464 -206.99200273 203.26518184 C-209.90702108 200.36011232 -212.82684307 197.4599864 -215.75046641 194.56357813 C-217.99788518 192.33462016 -220.23883478 190.09917241 -222.4808647 187.86479604 C-223.28980178 187.06619161 -224.09873885 186.26758718 -224.93218917 185.44478261 C-225.6738684 184.70324438 -226.41554763 183.96170614 -227.17970198 183.19769704 C-227.82328123 182.55855902 -228.46686047 181.919421 -229.12994212 181.26091516 C-233.47302058 176.31679042 -235.0137937 171.78362647 -234.86782759 165.28252065 C-232.32534466 155.6210855 -223.89474398 149.80741168 -215.69204634 144.8723644 C-185.38941895 127.81403888 -146.69705512 128.30423383 -113.43814009 134.91533315 C-107.08094468 135.89745265 -107.08094468 135.89745265 -101.31767195 133.57414663 C-100.53379607 132.77472646 -99.74992018 131.9753063 -98.94229048 131.15166128 C-98.04188536 130.25072744 -97.14148024 129.3497936 -96.21379012 128.42155874 C-95.25563807 127.4276654 -94.29787832 126.43339376 -93.34048384 125.43877065 C-92.3431165 124.42833799 -91.34418518 123.41944691 -90.34376448 122.41203725 C-87.7223261 119.7639469 -85.1225925 117.09551509 -82.52688521 114.42223012 C-79.87146831 111.69504246 -77.19597646 108.98770816 -74.52212447 106.2786144 C-69.28421993 100.96576904 -64.06909478 95.63126528 -58.86782759 90.28252065 C-61.11091039 85.43211016 -64.6951267 82.44783676 -68.55532759 78.8176769 C-71.89228188 75.15942803 -73.15399096 71.82907038 -73.24282759 66.90752065 C-73.27118697 66.19853628 -73.29954634 65.4895519 -73.32876509 64.75908315 C-72.19321812 58.65792401 -68.01400528 54.05040466 -63.76724166 49.77788198 C-63.27232222 49.2760993 -62.77740279 48.77431661 -62.2674858 48.25732839 C-60.64701204 46.61871617 -59.01586807 44.99126151 -57.38345259 43.3645519 C-56.24211746 42.21864894 -55.10115277 41.07237689 -53.96054 39.9257549 C-51.57493187 37.5312412 -49.18377024 35.1424483 -46.78872603 32.75737417 C-43.73281219 29.71294948 -40.69304432 26.65295774 -37.65750426 23.58823526 C-35.3069851 21.21929783 -32.94714551 18.85981815 -30.5845558 16.50292432 C-29.4604399 15.37896093 -28.33938819 14.25192362 -27.22159499 13.12167203 C-10.30385443 -3.95796849 -10.30385443 -3.95796849 0 0 Z " fill="#fff" transform="translate(302.86782759428024,57.71747934818268)"/>
</svg>
