<?xml version="1.0" encoding="UTF-8"?>
<svg version="1.1" xmlns="http://www.w3.org/2000/svg" width="512" height="512">
<path d="M0 0 C2.35656719 0.00112981 4.71313578 0.00049202 7.06970215 -0.00177002 C13.43455675 -0.00291289 19.79910692 0.02052738 26.16389108 0.04852581 C32.15145781 0.07106546 38.13902553 0.07502557 44.12662663 0.0791333 C55.97689012 0.08786211 67.82704272 0.11441171 79.67724609 0.15234375 C91.18049571 0.18912665 102.68371508 0.21740756 114.18701172 0.234375 C115.25272653 0.23595134 115.25272653 0.23595134 116.33997092 0.23755953 C119.90464552 0.24278013 123.46932032 0.24783485 127.03399527 0.25280714 C156.55097394 0.2941939 186.0678434 0.36487589 215.5847168 0.45410156 C215.59351616 1.5428508 215.59351616 1.5428508 215.60249329 2.65359497 C215.66051024 9.50964999 215.7326384 16.3654287 215.82043171 23.2211628 C215.8650697 26.74540016 215.90433976 30.26952368 215.93115234 33.79394531 C215.96225028 37.85022868 216.01703642 41.90589696 216.07299805 45.96191406 C216.08258293 47.85129196 216.08258293 47.85129196 216.09236145 49.77883911 C216.11215561 50.95961029 216.13194977 52.14038147 216.15234375 53.35693359 C216.16344681 54.39173859 216.17454987 55.42654358 216.18598938 56.4927063 C216.75684229 60.73249777 218.35462486 64.08207594 221.2097168 67.26660156 C224.89174587 69.1076161 228.48428951 69.57512112 232.5847168 69.45410156 C236.81330577 67.9662647 239.29039766 66.318218 241.5847168 62.45410156 C242.63459158 59.3044772 242.74065522 57.0062274 242.79003906 53.69750977 C242.80998428 52.51651199 242.8299295 51.33551422 242.85047913 50.11872864 C242.86719162 48.84365952 242.88390411 47.56859039 242.90112305 46.25488281 C242.93229469 44.2969001 242.93229469 44.2969001 242.96409607 42.29936218 C243.01923952 38.83227803 243.06868275 35.3651351 243.11694336 31.89794922 C243.1672149 28.35867087 243.22287143 24.81947767 243.27807617 21.28027344 C243.38556317 14.33829 243.48702907 7.39622962 243.5847168 0.45410156 C256.0073621 0.36109109 268.42992345 0.29017954 280.8528471 0.24685287 C286.62240152 0.22604979 292.39171628 0.19786587 298.16113281 0.15234375 C303.73733156 0.10862553 309.31330096 0.08490982 314.88965797 0.07459259 C317.00854918 0.06724763 319.12742898 0.05290563 321.24622154 0.03118134 C339.90252668 -0.15235717 354.52194613 1.92770004 368.8347168 15.14160156 C380.64445944 27.67884376 383.05452141 41.18459297 382.87768555 57.74316406 C382.87207891 59.29828479 382.86781387 60.85341087 382.86482239 62.40853882 C382.85345751 66.46920829 382.82406417 70.52954745 382.79071045 74.59008789 C382.75982757 78.7465366 382.74627842 82.90303954 382.73120117 87.05957031 C382.69918489 95.19123103 382.64809202 103.32262502 382.5847168 111.45410156 C380.63505005 111.53301636 380.63505005 111.53301636 378.64599609 111.61352539 C376.921126 111.6915287 375.19627333 111.76991825 373.47143555 111.84863281 C372.18988586 111.89896667 372.18988586 111.89896667 370.88244629 111.95031738 C361.08485463 112.41462471 353.70194763 114.93359999 346.14331055 121.28222656 C344.5847168 122.45410156 344.5847168 122.45410156 342.5847168 122.45410156 C342.3165918 123.01355469 342.0484668 123.57300781 341.7722168 124.14941406 C340.04924178 127.49334583 338.01949262 130.63563413 336.0222168 133.82128906 C331.10978189 142.81852039 330.97653501 154.27389884 333.5300293 164.08691406 C335.76411914 169.693215 338.51526589 174.03584058 342.5847168 178.45410156 C342.5847168 179.11410156 342.5847168 179.77410156 342.5847168 180.45410156 C343.14545898 180.72222656 343.70620117 180.99035156 344.28393555 181.26660156 C347.60160364 182.97894639 350.70533392 185.01411245 353.85424805 187.01660156 C360.23305862 190.37483088 366.44293595 190.82069435 373.5222168 191.07910156 C374.83416016 191.13710938 374.83416016 191.13710938 376.17260742 191.19628906 C378.3096631 191.28971226 380.44715973 191.37295554 382.5847168 191.45410156 C382.67789065 200.37364887 382.7487198 209.29302555 382.79196548 218.21295547 C382.81273389 222.35601388 382.84085151 226.4987364 382.88647461 230.64160156 C382.93032051 234.6487121 382.95393445 238.65550203 382.96422577 242.66283417 C382.97154837 244.18248279 382.98584524 245.70211627 383.00763702 247.22162628 C383.2312127 263.47547095 379.12727467 276.56349845 367.8972168 288.70410156 C353.24363548 302.4807311 337.23261024 302.89198004 318.29174805 302.74707031 C316.1327087 302.74146693 313.97366551 302.73720034 311.81462097 302.73420715 C306.16426852 302.72281688 300.51415171 302.69340028 294.8638916 302.66009521 C289.08531887 302.62926829 283.30670763 302.61567496 277.52807617 302.60058594 C266.21352018 302.56852459 254.89913817 302.51739936 243.5847168 302.45410156 C243.57591743 301.36535233 243.57591743 301.36535233 243.56694031 300.25460815 C243.50892336 293.39855314 243.4367952 286.54277442 243.34900188 279.68704033 C243.30436389 276.16280297 243.26509383 272.63867944 243.23828125 269.11425781 C243.20718332 265.05797445 243.15239717 261.00230616 243.09643555 256.94628906 C243.08685066 255.05691116 243.08685066 255.05691116 243.07707214 253.12936401 C243.05727798 251.94859283 243.03748383 250.76782166 243.01708984 249.55126953 C243.00598679 248.51646454 242.99488373 247.48165955 242.98344421 246.41549683 C242.4125913 242.17570535 240.81480873 238.82612718 237.9597168 235.64160156 C234.27768772 233.80058703 230.68514408 233.33308201 226.5847168 233.45410156 C222.35612783 234.94193842 219.87903593 236.58998512 217.5847168 240.45410156 C216.53484201 243.60372593 216.42877838 245.90197572 216.37939453 249.21069336 C216.35944931 250.39169113 216.33950409 251.5726889 216.31895447 252.78947449 C216.30224197 254.06454361 216.28552948 255.33961273 216.26831055 256.65332031 C216.2371389 258.61130302 216.2371389 258.61130302 216.20533752 260.60884094 C216.15019407 264.0759251 216.10075085 267.54306802 216.05249023 271.01025391 C216.0022187 274.54953225 215.94656217 278.08872546 215.89135742 281.62792969 C215.78387042 288.56991312 215.68240453 295.51197351 215.5847168 302.45410156 C185.35884567 302.54547044 155.13298165 302.6162013 124.90700348 302.65836288 C121.33367267 302.66336535 117.76034213 302.66854267 114.18701172 302.67382812 C113.47566482 302.67487737 112.76431793 302.67592661 112.03141507 302.67700765 C100.53297088 302.69438434 89.03460717 302.72590682 77.53621063 302.76271275 C65.72639328 302.80019854 53.91661791 302.82235351 42.10674351 302.83045554 C35.47810505 302.83543813 28.8496159 302.84786292 22.2210331 302.87702179 C15.97564175 302.90427115 9.7305068 302.91252722 3.48506165 302.90653229 C1.19906405 302.90762826 -1.08694257 302.91552495 -3.37288857 302.93092346 C-22.2976818 303.05209795 -37.12854281 301.18727744 -51.6652832 287.76660156 C-63.47502585 275.22935937 -65.88508782 261.72361016 -65.70825195 245.16503906 C-65.70264531 243.60991834 -65.69838027 242.05479226 -65.69538879 240.49966431 C-65.68402392 236.43899483 -65.65463058 232.37865567 -65.62127686 228.31811523 C-65.59039397 224.16166652 -65.57684483 220.00516359 -65.56176758 215.84863281 C-65.5297513 207.7169721 -65.47865842 199.58557811 -65.4152832 191.45410156 C-64.11550537 191.4014917 -62.81572754 191.34888184 -61.4765625 191.29467773 C-59.7516924 191.21667443 -58.02683974 191.13828487 -56.30200195 191.05957031 C-55.4476355 191.0260144 -54.59326904 190.9924585 -53.7130127 190.95788574 C-43.91542104 190.49357842 -36.53251404 187.97460314 -28.97387695 181.62597656 C-27.4152832 180.45410156 -27.4152832 180.45410156 -25.4152832 180.45410156 C-25.1471582 179.89464844 -24.8790332 179.33519531 -24.6027832 178.75878906 C-22.87980819 175.41485729 -20.85005902 172.27256899 -18.8527832 169.08691406 C-13.9403483 160.08968274 -13.80710142 148.63430429 -16.3605957 138.82128906 C-18.59468555 133.21498813 -21.3458323 128.87236255 -25.4152832 124.45410156 C-25.4152832 123.79410156 -25.4152832 123.13410156 -25.4152832 122.45410156 C-26.25639648 122.05191406 -26.25639648 122.05191406 -27.11450195 121.64160156 C-30.43217005 119.92925674 -33.53590032 117.89409068 -36.68481445 115.89160156 C-43.06362502 112.53337225 -49.27350236 112.08750877 -56.3527832 111.82910156 C-57.22741211 111.79042969 -58.10204102 111.75175781 -59.00317383 111.71191406 C-61.14022951 111.61849086 -63.27772614 111.53524758 -65.4152832 111.45410156 C-65.50845705 102.53455426 -65.57928621 93.61517757 -65.62253189 84.69524765 C-65.64330029 80.55218925 -65.67141792 76.40946673 -65.71704102 72.26660156 C-65.76088692 68.25949103 -65.78450085 64.2527011 -65.79479218 60.24536896 C-65.80211478 58.72572033 -65.81641164 57.20608686 -65.83820343 55.68657684 C-66.06226004 39.39776853 -61.95948641 26.23247548 -50.6027832 14.14160156 C-35.79951654 0.2741736 -19.14953648 -0.12899445 0 0 Z M223.5847168 110.01660156 C222.5947168 110.45166016 222.5947168 110.45166016 221.5847168 110.89550781 C217.55157892 114.03851956 215.82875701 117.51668208 215.20065308 122.50315857 C215.0387149 126.29044419 215.00107956 130.06682207 215.01831055 133.85644531 C215.01306726 135.26217559 215.00678821 136.66790235 214.99952698 138.07362366 C214.9891533 141.01140975 214.9936394 143.94871057 215.00830078 146.88647461 C215.02547948 150.63356651 215.00199154 154.37912354 214.96681118 158.12604427 C214.94474861 161.02679927 214.94629982 163.92719201 214.95457649 166.82800484 C214.9553913 168.20857997 214.94861866 169.58918298 214.93380547 170.96967888 C214.86257406 178.80883422 214.85315956 185.56226469 220.5847168 191.45410156 C224.4025017 193.78719234 226.68451956 194.4698945 231.1472168 194.39160156 C236.19623809 193.01459576 239.49654482 191.26596694 242.2313385 186.71238708 C243.68795677 183.20554925 243.97024816 180.78844526 243.98876953 177.0090332 C244.00779579 175.12161156 244.00779579 175.12161156 244.02720642 173.19606018 C244.0251547 171.83545771 244.02216643 170.47485637 244.01831055 169.11425781 C244.02287711 167.70470428 244.02818409 166.29515297 244.03419495 164.88560486 C244.04310721 161.93772309 244.04072481 158.99011249 244.03076172 156.04223633 C244.01927581 152.27841676 244.03948596 148.51553595 244.06867886 144.75183964 C244.08709126 141.84258655 244.08673846 138.93355634 244.08104134 136.02425957 C244.08088873 134.63727947 244.08688297 133.25028368 244.09933281 131.86335945 C244.2396124 121.43671835 244.2396124 121.43671835 239.5847168 112.45410156 C237.68441373 110.84171969 237.68441373 110.84171969 235.5847168 110.01660156 C234.9247168 109.70851563 234.2647168 109.40042969 233.5847168 109.08300781 C229.84701945 107.9076772 227.01051098 108.41745154 223.5847168 110.01660156 Z " fill="#fff" transform="translate(97.415283203125,104.5458984375)"/>
</svg>
